<svg width="50" height="47" viewBox="0 0 50 47" fill="none" xmlns="http://www.w3.org/2000/svg">
<g id="Download">
<path id="Fill 1" fill-rule="evenodd" clip-rule="evenodd" d="M25.0024 33.853C23.9674 33.853 23.1274 33.013 23.1274 31.978V1.87549C23.1274 0.840488 23.9674 0.000488281 25.0024 0.000488281C26.0374 0.000488281 26.8774 0.840488 26.8774 1.87549V31.978C26.8774 33.013 26.0374 33.853 25.0024 33.853Z" fill="#E6E6E6"/>
<path id="Fill 3" fill-rule="evenodd" clip-rule="evenodd" d="M25.0023 33.8531C24.5048 33.8531 24.0248 33.6556 23.6748 33.3006L16.3848 25.9831C15.6548 25.2481 15.6573 24.0606 16.3898 23.3306C17.1248 22.6006 18.3098 22.6006 19.0398 23.3356L25.0023 29.3231L30.9648 23.3356C31.6948 22.6006 32.8798 22.6006 33.6148 23.3306C34.3473 24.0606 34.3498 25.2481 33.6198 25.9831L26.3298 33.3006C25.9798 33.6556 25.4998 33.8531 25.0023 33.8531Z" fill="#E6E6E6"/>
<g id="Group 7">
<mask id="mask0_1335_515" style="mask-type:luminance" maskUnits="userSpaceOnUse" x="0" y="11" width="50" height="36">
<path id="Clip 6" fill-rule="evenodd" clip-rule="evenodd" d="M0.000488281 11.8315H50V46.1915H0.000488281V11.8315Z" fill="white"/>
</mask>
<g mask="url(#mask0_1335_515)">
<path id="Fill 5" fill-rule="evenodd" clip-rule="evenodd" d="M38.938 46.1915H11.088C4.97549 46.1915 0.000488281 41.219 0.000488281 35.104V22.8915C0.000488281 16.7915 4.96299 11.8315 11.0655 11.8315H13.418C14.453 11.8315 15.293 12.6715 15.293 13.7065C15.293 14.7415 14.453 15.5815 13.418 15.5815H11.0655C7.03049 15.5815 3.75049 18.859 3.75049 22.8915V35.104C3.75049 39.1515 7.04049 42.4415 11.088 42.4415H38.938C42.968 42.4415 46.2505 39.159 46.2505 35.129V22.919C46.2505 18.8715 42.958 15.5815 38.9155 15.5815H36.5855C35.5505 15.5815 34.7105 14.7415 34.7105 13.7065C34.7105 12.6715 35.5505 11.8315 36.5855 11.8315H38.9155C45.028 11.8315 50.0005 16.8065 50.0005 22.919V35.129C50.0005 41.229 45.0355 46.1915 38.938 46.1915Z" fill="#E6E6E6"/>
</g>
</g>
</g>
</svg>
