<svg width="240" height="240" viewBox="0 0 240 240" fill="none" xmlns="http://www.w3.org/2000/svg">
<g id="bi:check-circle-fill" clip-path="url(#clip0_1335_991)">
<path id="Vector" d="M240 120C240 151.826 227.357 182.348 204.853 204.853C182.348 227.357 151.826 240 120 240C88.174 240 57.6516 227.357 35.1472 204.853C12.6428 182.348 0 151.826 0 120C0 88.174 12.6428 57.6516 35.1472 35.1472C57.6516 12.6428 88.174 0 120 0C151.826 0 182.348 12.6428 204.853 35.1472C227.357 57.6516 240 88.174 240 120ZM180.45 74.55C179.379 73.4823 178.103 72.6416 176.699 72.0782C175.295 71.5149 173.792 71.2404 172.28 71.2712C170.768 71.302 169.277 71.6375 167.897 72.2575C166.518 72.8776 165.277 73.7695 164.25 74.88L112.155 141.255L80.76 109.845C78.6274 107.858 75.8067 106.776 72.8922 106.827C69.9776 106.879 67.1969 108.059 65.1357 110.121C63.0745 112.182 61.8938 114.963 61.8424 117.877C61.791 120.792 62.8728 123.612 64.86 125.745L104.55 165.45C105.619 166.517 106.892 167.358 108.294 167.923C109.695 168.487 111.196 168.764 112.706 168.736C114.217 168.708 115.706 168.376 117.085 167.76C118.465 167.144 119.706 166.256 120.735 165.15L180.615 90.3C182.656 88.1775 183.784 85.3391 183.756 82.3944C183.728 79.4496 182.546 76.6332 180.465 74.55H180.45Z" fill="#7CBE33"/>
</g>
<defs>
<clipPath id="clip0_1335_991">
<rect width="240" height="240" fill="white"/>
</clipPath>
</defs>
</svg>
