<svg width="37" height="40" viewBox="0 0 37 40" fill="none" xmlns="http://www.w3.org/2000/svg">
<g id="Setting">
<g id="Group 3">
<mask id="mask0_1396_981" style="mask-type:luminance" maskUnits="userSpaceOnUse" x="0" y="0" width="37" height="40">
<path id="Clip 2" fill-rule="evenodd" clip-rule="evenodd" d="M0.75 0.750977H36.9091V39.6029H0.75V0.750977Z" fill="white"/>
</mask>
<g mask="url(#mask0_1396_981)">
<path id="Fill 1" fill-rule="evenodd" clip-rule="evenodd" d="M10.5043 29.701C10.9337 29.701 11.3631 29.7554 11.7831 29.8679C13.0506 30.2091 14.1512 31.0566 14.8037 32.1947C15.2275 32.9091 15.4618 33.7435 15.4693 34.5947C15.4693 35.8135 16.4481 36.7904 17.6518 36.7904H20.0012C21.1993 36.7904 22.1781 35.8191 22.1837 34.621C22.1762 33.2972 22.6937 32.0391 23.6406 31.0922C24.5743 30.1585 25.8793 29.5979 27.1843 29.6354C28.0393 29.656 28.8625 29.8866 29.5881 30.2991C30.6325 30.8972 31.9656 30.541 32.5693 29.5097L33.8143 27.4341C34.0918 26.956 34.1725 26.356 34.0243 25.8029C33.8781 25.2497 33.5106 24.7697 33.0156 24.4866C31.8568 23.8191 31.03 22.7429 30.6868 21.4529C30.3475 20.1872 30.5331 18.8054 31.195 17.6672C31.6262 16.9172 32.2581 16.2854 33.0156 15.8504C34.0318 15.256 34.3881 13.9266 33.7975 12.8916C33.7731 12.8504 33.7506 12.8072 33.7318 12.7622L32.6331 10.8572C32.035 9.8166 30.7037 9.45848 29.6593 10.0529C28.5306 10.7204 27.1881 10.9116 25.8981 10.5722C24.61 10.2385 23.53 9.42285 22.8568 8.2716C22.4256 7.5516 22.1912 6.71348 22.1837 5.86035C22.2006 5.2191 21.9756 4.64348 21.5668 4.2216C21.16 3.8016 20.5881 3.56348 20.0012 3.56348H17.6518C17.0706 3.56348 16.5268 3.79035 16.1162 4.1991C15.7075 4.60973 15.4843 5.15535 15.4881 5.7366C15.4487 8.47785 13.2081 10.6847 10.495 10.6847C9.62497 10.6754 8.78685 10.441 8.05935 10.006C7.03747 9.42473 5.70247 9.78285 5.10435 10.8235L3.83497 12.9104C3.25372 13.9191 3.60997 15.2522 4.64497 15.8541C6.1806 16.7429 7.13872 18.4004 7.13872 20.1779C7.13872 21.9554 6.1806 23.611 4.64122 24.5016C3.61185 25.0979 3.2556 26.4235 3.85185 27.4547L5.03497 29.4947C5.32747 30.0216 5.8056 30.4022 6.35872 30.5579C6.90997 30.7116 7.51747 30.646 8.02372 30.3647C8.7681 29.9279 9.63435 29.701 10.5043 29.701ZM20.0012 39.6029H17.6518C14.8975 39.6029 12.6568 37.3641 12.6568 34.6097C12.6531 34.2704 12.5556 33.9179 12.3737 33.6122C12.0793 33.0985 11.6031 32.731 11.0537 32.5847C10.5081 32.4385 9.90997 32.5191 9.41872 32.8041C8.24122 33.4604 6.8556 33.6197 5.5881 33.2635C4.32247 32.9054 3.22935 32.0354 2.5881 30.8822L1.41622 28.8629C0.0455995 26.4854 0.861224 23.4385 3.23497 22.066C3.9081 21.6779 4.32622 20.9541 4.32622 20.1779C4.32622 19.4016 3.9081 18.676 3.23497 18.2879C0.85935 16.9079 0.0455995 13.8535 1.41435 11.476L2.6856 9.3891C4.03747 7.03785 7.09372 6.2091 9.47685 7.57785C9.80122 7.77098 10.1537 7.86848 10.5118 7.87223C11.68 7.87223 12.6568 6.90848 12.6756 5.72348C12.6681 4.4166 13.1837 3.16223 14.1231 2.21535C15.0662 1.27035 16.3187 0.750977 17.6518 0.750977H20.0012C21.3437 0.750977 22.6487 1.30223 23.5844 2.26035C24.5181 3.2241 25.0337 4.54598 24.9944 5.8866C24.9981 6.18848 25.0975 6.53723 25.2775 6.84285C25.5756 7.3491 26.0462 7.70535 26.605 7.8516C27.1637 7.99035 27.7487 7.91535 28.2456 7.62098C30.6456 6.25035 33.7 7.0716 35.0706 9.45285L36.2387 11.476C36.2687 11.5304 36.295 11.5829 36.3175 11.6372C37.5587 13.9829 36.73 16.936 34.4237 18.2841C34.0881 18.4772 33.8162 18.7472 33.6287 19.0735C33.3381 19.5779 33.2575 20.1779 33.4037 20.7291C33.5537 21.2916 33.9118 21.7585 34.4162 22.0472C35.5544 22.7016 36.4037 23.8041 36.7431 25.0772C37.0825 26.3485 36.8969 27.7285 36.235 28.8666L34.99 30.9404C33.6194 33.2954 30.565 34.111 28.1893 32.7385C27.8725 32.5566 27.5068 32.4572 27.1431 32.4479H27.1318C26.59 32.4479 26.0331 32.6785 25.6281 33.0816C25.2175 33.4922 24.9925 34.0397 24.9962 34.621C24.9831 37.3754 22.7425 39.6029 20.0012 39.6029Z" fill="black"/>
</g>
</g>
<path id="Fill 4" fill-rule="evenodd" clip-rule="evenodd" d="M18.8346 16.6399C16.8846 16.6399 15.2983 18.228 15.2983 20.178C15.2983 22.128 16.8846 23.7124 18.8346 23.7124C20.7846 23.7124 22.3708 22.128 22.3708 20.178C22.3708 18.228 20.7846 16.6399 18.8346 16.6399ZM18.8346 26.5249C15.334 26.5249 12.4858 23.6786 12.4858 20.178C12.4858 16.6774 15.334 13.8274 18.8346 13.8274C22.3352 13.8274 25.1833 16.6774 25.1833 20.178C25.1833 23.6786 22.3352 26.5249 18.8346 26.5249Z" fill="black"/>
</g>
</svg>
