<svg width="41" height="40" viewBox="0 0 41 40" fill="none" xmlns="http://www.w3.org/2000/svg">
<g id="mdi:location">
<path id="Vector" d="M20.5 19.4C19.6949 19.4 18.9227 19.0839 18.3534 18.5213C17.7841 17.9587 17.4643 17.1957 17.4643 16.4C17.4643 15.6044 17.7841 14.8413 18.3534 14.2787C18.9227 13.7161 19.6949 13.4 20.5 13.4C21.3051 13.4 22.0773 13.7161 22.6466 14.2787C23.2159 14.8413 23.5357 15.6044 23.5357 16.4C23.5357 16.794 23.4572 17.1841 23.3046 17.5481C23.1521 17.912 22.9285 18.2427 22.6466 18.5213C22.3647 18.7999 22.03 19.0209 21.6617 19.1716C21.2934 19.3224 20.8987 19.4 20.5 19.4ZM20.5 8C18.2457 8 16.0837 8.885 14.4896 10.4603C12.8955 12.0356 12 14.1722 12 16.4C12 22.7 20.5 32 20.5 32C20.5 32 29 22.7 29 16.4C29 14.1722 28.1045 12.0356 26.5104 10.4603C24.9163 8.885 22.7543 8 20.5 8Z" fill="#4A2708"/>
</g>
</svg>
