<svg width="44" height="44" viewBox="0 0 44 44" fill="none" xmlns="http://www.w3.org/2000/svg">
<g id="mdi:twitter">
<rect width="44" height="44" rx="22" fill="white"/>
<path id="Vector" d="M41.1766 11C39.7649 11.6417 38.2432 12.0634 36.6666 12.265C38.2799 11.2934 39.5266 9.75337 40.1132 7.90171C38.5916 8.81837 36.9049 9.46004 35.1266 9.82671C33.6782 8.25004 31.6432 7.33337 29.3332 7.33337C25.0249 7.33337 21.5049 10.8534 21.5049 15.1984C21.5049 15.8217 21.5782 16.4267 21.7066 16.995C15.1799 16.665 9.36824 13.53 5.49991 8.78171C4.82158 9.93671 4.43658 11.2934 4.43658 12.7234C4.43658 15.455 5.81158 17.875 7.93824 19.25C6.63658 19.25 5.42658 18.8834 4.36324 18.3334V18.3884C4.36324 22.2017 7.07658 25.3917 10.6699 26.1067C9.51624 26.4224 8.30508 26.4664 7.13158 26.235C7.62952 27.7979 8.60473 29.1655 9.92011 30.1454C11.2355 31.1254 12.8249 31.6685 14.4649 31.6984C11.6849 33.8992 8.2389 35.0888 4.69324 35.0717C4.06991 35.0717 3.44658 35.035 2.82324 34.9617C6.30658 37.1984 10.4499 38.5 14.8866 38.5C29.3332 38.5 37.2716 26.51 37.2716 16.115C37.2716 15.7667 37.2716 15.4367 37.2532 15.0884C38.7932 13.9884 40.1132 12.595 41.1766 11Z" fill="#4A2708"/>
</g>
</svg>
