<svg width="50" height="50" viewBox="0 0 50 50" fill="none" xmlns="http://www.w3.org/2000/svg">
<path fill-rule="evenodd" clip-rule="evenodd" d="M25.002 34.4607C24.1395 34.4607 23.4395 33.7607 23.4395 32.8982V7.81274C23.4395 6.95024 24.1395 6.25024 25.002 6.25024C25.8645 6.25024 26.5645 6.95024 26.5645 7.81274V32.8982C26.5645 33.7607 25.8645 34.4607 25.002 34.4607Z" fill="#FE8337"/>
<path fill-rule="evenodd" clip-rule="evenodd" d="M25.0019 34.4606C24.5873 34.4606 24.1873 34.296 23.8957 34.0001L17.8207 27.9022C17.2123 27.2897 17.2144 26.3001 17.8248 25.6918C18.4373 25.0835 19.4248 25.0835 20.0332 25.696L25.0019 30.6856L29.9707 25.696C30.579 25.0835 31.5665 25.0835 32.179 25.6918C32.7894 26.3001 32.7915 27.2897 32.1832 27.9022L26.1082 34.0001C25.8165 34.296 25.4165 34.4606 25.0019 34.4606Z" fill="#FE8337"/>
<mask id="mask0_1318_1569" style="mask-type:luminance" maskUnits="userSpaceOnUse" x="4" y="16" width="42" height="29">
<path fill-rule="evenodd" clip-rule="evenodd" d="M4.16699 16.1096H45.8332V44.743H4.16699V16.1096Z" fill="white"/>
</mask>
<g mask="url(#mask0_1318_1569)">
<path fill-rule="evenodd" clip-rule="evenodd" d="M36.6149 44.743H13.4066C8.31283 44.743 4.16699 40.5992 4.16699 35.5034V25.3263C4.16699 20.243 8.30241 16.1096 13.3878 16.1096H15.3482C16.2107 16.1096 16.9107 16.8096 16.9107 17.6721C16.9107 18.5346 16.2107 19.2346 15.3482 19.2346H13.3878C10.0253 19.2346 7.29199 21.9659 7.29199 25.3263V35.5034C7.29199 38.8763 10.0337 41.618 13.4066 41.618H36.6149C39.9732 41.618 42.7087 38.8825 42.7087 35.5242V25.3492C42.7087 21.9763 39.9649 19.2346 36.5962 19.2346H34.6545C33.792 19.2346 33.092 18.5346 33.092 17.6721C33.092 16.8096 33.792 16.1096 34.6545 16.1096H36.5962C41.6899 16.1096 45.8337 20.2555 45.8337 25.3492V35.5242C45.8337 40.6075 41.6962 44.743 36.6149 44.743Z" fill="#FE8337"/>
</g>
</svg>
